# xmcd CD database file
#
# Track frame offsets:
#	150
#	140765
#	260028
#
# Disc length: 3957 seconds
#
# Revision: 0
# Processed by: cddbd v1.5.2PL0 Copyright (c) Steve Scherf et al.
# Submitted via: CDex 1.70beta2
#
DISCID=2c0f7303
DTITLE=The Celestral Communication Orchestra - HR57 IV
DYEAR=2001
DGENRE=Jazz
TTITLE0=HR57 III
TTITLE1=Soon
TTITLE2=What is Your Name
EXTD=YEAR: 2001
EXTT0=
EXTT1=
EXTT2=
PLAYORDER=
